<svg width="26" height="30" viewBox="0 0 26 30" fill="none" xmlns="http://www.w3.org/2000/svg">
<path d="M12.3253 14.4511C14.3106 14.4511 16.0295 13.7391 17.4344 12.3342C18.8388 10.9296 19.5511 9.21089 19.5511 7.22534C19.5511 5.24048 18.839 3.52158 17.4342 2.11647C16.0293 0.712051 14.3104 0 12.3253 0C10.3397 0 8.62106 0.712051 7.21642 2.1167C5.81177 3.52135 5.09949 5.24025 5.09949 7.22534C5.09949 9.21089 5.81177 10.9298 7.21642 12.3344C8.62152 13.7389 10.3404 14.4511 12.3253 14.4511ZM8.4597 3.35976C9.53751 2.28195 10.8018 1.75804 12.3253 1.75804C13.8485 1.75804 15.1131 2.28195 16.1911 3.35976C17.2689 4.43779 17.793 5.70236 17.793 7.22534C17.793 8.74878 17.2689 10.0131 16.1911 11.0912C15.1131 12.1692 13.8485 12.6931 12.3253 12.6931C10.8023 12.6931 9.53796 12.169 8.4597 11.0912C7.38167 10.0134 6.85753 8.74878 6.85753 7.22534C6.85753 5.70236 7.38167 4.43779 8.4597 3.35976Z" fill="white"/>
<path d="M24.9685 23.0685C24.928 22.484 24.846 21.8463 24.7254 21.1729C24.6037 20.4945 24.4469 19.8532 24.2592 19.267C24.0651 18.6612 23.8017 18.0629 23.4755 17.4895C23.1374 16.8945 22.7401 16.3763 22.2942 15.9499C21.828 15.5038 21.2572 15.1451 20.5971 14.8835C19.9393 14.6233 19.2103 14.4914 18.4305 14.4914C18.1242 14.4914 17.8281 14.6171 17.2561 14.9895C16.9041 15.219 16.4923 15.4845 16.0327 15.7782C15.6397 16.0286 15.1073 16.2632 14.4498 16.4756C13.8082 16.6832 13.1568 16.7885 12.5137 16.7885C11.871 16.7885 11.2196 16.6832 10.5775 16.4756C9.92065 16.2634 9.38805 16.0288 8.99574 15.7784C8.5405 15.4875 8.12851 15.222 7.77122 14.9892C7.19971 14.6169 6.90353 14.4912 6.59729 14.4912C5.81726 14.4912 5.0885 14.6233 4.43092 14.8837C3.77129 15.1449 3.20023 15.5035 2.73354 15.9501C2.28767 16.3767 1.89034 16.8947 1.55251 17.4895C1.22681 18.0629 0.963135 18.661 0.769043 19.2673C0.581589 19.8534 0.424805 20.4945 0.30304 21.1729C0.18219 21.8454 0.100479 22.4833 0.0599671 23.0692C0.0201416 23.6421 0 24.2384 0 24.8408C0 26.4068 0.497818 27.6746 1.47949 28.6095C2.44904 29.5322 3.73169 30 5.29198 30H19.7372C21.297 30 22.5797 29.5322 23.5494 28.6095C24.5313 27.6752 25.0291 26.407 25.0291 24.8405C25.0289 24.2361 25.0085 23.6398 24.9685 23.0685ZM22.3373 27.3358C21.6966 27.9456 20.8461 28.242 19.7369 28.242H5.29198C4.18259 28.242 3.33206 27.9456 2.69165 27.336C2.06337 26.738 1.75804 25.9216 1.75804 24.8408C1.75804 24.2786 1.77658 23.7236 1.81366 23.1908C1.84982 22.668 1.92375 22.0937 2.03339 21.4835C2.14165 20.8809 2.27943 20.3153 2.44331 19.8033C2.60056 19.3124 2.81502 18.8262 3.08098 18.3579C3.33481 17.9116 3.62686 17.5287 3.94913 17.2202C4.25056 16.9315 4.63051 16.6953 5.0782 16.5182C5.49225 16.3543 5.95757 16.2646 6.46271 16.2511C6.52428 16.2838 6.63391 16.3463 6.81152 16.4621C7.17293 16.6976 7.58949 16.9663 8.05 17.2604C8.56911 17.5914 9.2379 17.8903 10.0369 18.1483C10.8538 18.4124 11.6869 18.5465 12.5139 18.5465C13.3408 18.5465 14.1742 18.4124 14.9906 18.1485C15.7903 17.8901 16.4589 17.5914 16.9787 17.26C17.45 16.9588 17.8548 16.6978 18.2162 16.4621C18.3939 16.3465 18.5035 16.2838 18.5651 16.2511C19.0704 16.2646 19.5358 16.3543 19.95 16.5182C20.3975 16.6953 20.7774 16.9318 21.0789 17.2202C21.4011 17.5285 21.6932 17.9114 21.947 18.3582C22.2132 18.8262 22.4279 19.3126 22.5849 19.8031C22.749 20.3158 22.887 20.8811 22.9951 21.4833C23.1045 22.0947 23.1786 22.6691 23.2148 23.191V23.1915C23.2521 23.7222 23.2709 24.277 23.2711 24.8408C23.2709 25.9218 22.9655 26.738 22.3373 27.3358Z" fill="white"/>
</svg>
