<svg width="128" height="192" viewBox="0 0 128 192" fill="none" xmlns="http://www.w3.org/2000/svg">
<path d="M57.5999 52.0347V83.1999H9.59998C8.75129 83.1999 7.93736 83.537 7.33725 84.1371C6.73713 84.7372 6.39999 85.5512 6.39999 86.3998V98.4442L0.338 110.569C0.115673 111.013 -5.42564e-05 111.503 1.90824e-08 112V176C-5.42564e-05 176.497 0.115673 176.987 0.338 177.431L6.73799 190.231C7.00376 190.762 7.41228 191.209 7.91777 191.522C8.42325 191.834 9.00575 192 9.59998 192H60.7999C61.3941 192 61.9766 191.834 62.4821 191.522C62.9876 191.209 63.3961 190.762 63.6619 190.231L63.7211 190.111C66.3693 191.736 69.5191 192.341 72.5809 191.811C75.6427 191.282 78.4066 189.655 80.3555 187.235C83.2911 190.14 87.779 192 92.7998 192C97.8206 192 102.309 190.14 105.244 187.236C106.906 189.297 109.166 190.792 111.714 191.515C114.261 192.237 116.969 192.151 119.466 191.27C121.962 190.388 124.124 188.754 125.652 186.592C127.181 184.43 128.001 181.847 128 179.2C128 179.133 128 179.066 127.993 179L124.814 128.127L127.967 106.052C127.988 105.902 127.997 105.751 127.996 105.6H128V52.0347C128.005 48.7511 126.995 45.5462 125.107 42.8591L108.546 19.2H108.8C109.648 19.2 110.462 18.8628 111.063 18.2627C111.663 17.6626 112 16.8487 112 16V9.59998C111.997 7.05479 110.985 4.61465 109.185 2.81493C107.385 1.0152 104.945 0.00285852 102.4 0H83.1999C80.6547 0.00285852 78.2145 1.0152 76.4148 2.81493C74.6151 4.61465 73.6027 7.05479 73.5999 9.59998V16C73.5999 16.8487 73.937 17.6626 74.5371 18.2627C75.1372 18.8628 75.9512 19.2 76.7999 19.2H77.0539L60.4939 42.8591C58.606 45.546 57.5952 48.7509 57.5999 52.0347ZM6.39999 172.8V115.2H32.3555C35.5199 123.371 38.3999 132.016 38.3999 140.8C38.3999 155.12 34.0195 163.52 28.7739 172.8H6.39999ZM39.2035 115.2H45.1555C48.3199 123.371 51.1999 132.016 51.1999 140.8C51.1999 155.12 46.8195 163.52 41.5739 172.8H36.1007C40.8431 164.12 44.7999 155.028 44.7999 140.8C44.7999 131.807 42.2259 123.267 39.2035 115.2ZM58.8223 185.6H11.5776L8.37759 179.2H62.0223L58.8223 185.6ZM115.2 185.6C113.503 185.598 111.876 184.923 110.677 183.723C109.477 182.523 108.802 180.896 108.8 179.2C108.8 178.351 108.463 177.537 107.863 176.937C107.262 176.337 106.449 176 105.6 176C104.751 176 103.937 176.337 103.337 176.937C102.737 177.537 102.4 178.351 102.4 179.2C102.4 182.669 98.0034 185.6 92.7998 185.6C87.5962 185.6 83.1999 182.669 83.1999 179.2C83.1999 178.351 82.8627 177.537 82.2626 176.937C81.6625 176.337 80.8485 176 79.9999 176C79.1512 176 78.3372 176.337 77.7371 176.937C77.137 177.537 76.7999 178.351 76.7999 179.2C76.8004 180.384 76.4722 181.545 75.8518 182.554C75.2315 183.562 74.3433 184.379 73.2863 184.913C72.2293 185.446 71.0449 185.676 69.8649 185.577C68.6849 185.477 67.5557 185.052 66.6031 184.349L70.0619 177.429C70.2839 176.985 70.3996 176.496 70.3999 176V112C70.3999 111.503 70.2842 111.013 70.0619 110.569L69.1775 108.8H121.11L118.432 127.547C118.401 127.763 118.392 127.982 118.406 128.199L121.6 179.29C121.574 180.971 120.889 182.574 119.692 183.755C118.494 184.935 116.881 185.598 115.2 185.6ZM79.9999 9.59998C80.0008 8.75158 80.3383 7.93821 80.9382 7.3383C81.5381 6.73839 82.3515 6.40094 83.1999 6.39999H102.4C103.248 6.40094 104.062 6.73839 104.662 7.3383C105.261 7.93821 105.599 8.75158 105.6 9.59998V12.8H79.9999V9.59998ZM63.9999 52.0347C63.9968 50.0646 64.6029 48.1418 65.7351 46.5295L84.8659 19.2H100.734L119.865 46.5295C120.997 48.1418 121.603 50.0646 121.6 52.0347V57.5999H63.9999V52.0347ZM63.9999 63.9999H121.6V102.4H65.9775L63.9999 98.4442V63.9999ZM63.9999 172.8H48.9007C53.6431 164.12 57.5999 155.028 57.5999 140.8C57.5999 131.807 55.0259 123.267 52.0035 115.2H63.9999V172.8ZM8.37759 108.8L11.5776 102.4H41.5999C42.4486 102.4 43.2626 102.063 43.8627 101.463C44.4628 100.862 44.7999 100.049 44.7999 99.1998C44.7999 98.3511 44.4628 97.5372 43.8627 96.9371C43.2626 96.337 42.4486 95.9998 41.5999 95.9998H12.8V89.5998H57.5999V95.9998H54.3999C53.5512 95.9998 52.7373 96.337 52.1372 96.9371C51.537 97.5372 51.1999 98.3511 51.1999 99.1998C51.1999 100.049 51.537 100.862 52.1372 101.463C52.7373 102.063 53.5512 102.4 54.3999 102.4H58.8223L62.0223 108.8H8.37759Z" fill="#6BAFC3"/>
</svg>
