<svg width="24" height="35" viewBox="0 0 24 35" fill="none" xmlns="http://www.w3.org/2000/svg">
<path d="M10.6544 9.48549V15.1666H1.77573C1.61875 15.1666 1.4682 15.2281 1.35719 15.3375C1.24619 15.4469 1.18382 15.5953 1.18382 15.75V17.9456L0.0625208 20.1557C0.0213963 20.2367 -1.0036e-05 20.3261 3.52973e-09 20.4166V32.0833C-1.0036e-05 32.1738 0.0213963 32.2632 0.0625208 32.3442L1.24634 34.6775C1.2955 34.7744 1.37107 34.8559 1.46457 34.9128C1.55807 34.9698 1.66582 34.9999 1.77573 34.9999H11.2463C11.3562 34.9999 11.464 34.9698 11.5575 34.9128C11.651 34.8559 11.7266 34.7744 11.7757 34.6775L11.7867 34.6556C12.2765 34.9519 12.8591 35.0621 13.4255 34.9656C13.9918 34.8691 14.5031 34.5725 14.8636 34.1314C15.4066 34.6609 16.2367 34.9999 17.1654 34.9999C18.0941 34.9999 18.9243 34.6609 19.4673 34.1316C19.7747 34.5074 20.1928 34.7798 20.664 34.9115C21.1351 35.0432 21.6361 35.0276 22.0979 34.8669C22.5597 34.7061 22.9595 34.4082 23.2422 34.0141C23.5249 33.62 23.6767 33.1492 23.6765 32.6666C23.6765 32.6544 23.6765 32.6423 23.6753 32.6301L23.0872 23.3565L23.6705 19.3324C23.6742 19.3051 23.676 19.2775 23.6757 19.25H23.6765V9.48549C23.6774 8.88692 23.4906 8.30269 23.1415 7.81286L20.078 3.49999H20.125C20.282 3.49999 20.4325 3.43854 20.5435 3.32914C20.6545 3.21974 20.7169 3.07137 20.7169 2.91666V1.75C20.7164 1.28603 20.5291 0.841213 20.1962 0.513138C19.8633 0.185063 19.412 0.000521085 18.9412 0H15.3897C14.9189 0.000521085 14.4676 0.185063 14.1347 0.513138C13.8018 0.841213 13.6145 1.28603 13.614 1.75V2.91666C13.614 3.07137 13.6763 3.21974 13.7873 3.32914C13.8983 3.43854 14.0489 3.49999 14.2059 3.49999H14.2529L11.1897 7.81286C10.8405 8.30265 10.6535 8.88688 10.6544 9.48549ZM1.18382 31.4999V21H5.98489C6.57022 22.4896 7.10294 24.0654 7.10294 25.6666C7.10294 28.277 6.29269 29.8083 5.32239 31.4999H1.18382ZM7.25158 21H8.35254C8.93787 22.4896 9.47059 24.0654 9.47059 25.6666C9.47059 28.277 8.66033 29.8083 7.69004 31.4999H6.67765C7.55486 29.9177 8.28676 28.2603 8.28676 25.6666C8.28676 24.0272 7.81064 22.4705 7.25158 21ZM10.8805 33.8333H2.14154L1.54962 32.6666H11.4724L10.8805 33.8333ZM21.3088 33.8333C20.995 33.8329 20.6941 33.7099 20.4721 33.4912C20.2502 33.2724 20.1254 32.9759 20.125 32.6666C20.125 32.5119 20.0626 32.3635 19.9516 32.2541C19.8406 32.1447 19.6901 32.0833 19.5331 32.0833C19.3761 32.0833 19.2255 32.1447 19.1145 32.2541C19.0035 32.3635 18.9412 32.5119 18.9412 32.6666C18.9412 33.299 18.128 33.8333 17.1654 33.8333C16.2029 33.8333 15.3897 33.299 15.3897 32.6666C15.3897 32.5119 15.3273 32.3635 15.2163 32.2541C15.1053 32.1447 14.9548 32.0833 14.7978 32.0833C14.6408 32.0833 14.4903 32.1447 14.3792 32.2541C14.2682 32.3635 14.2059 32.5119 14.2059 32.6666C14.206 32.8825 14.1453 33.0941 14.0305 33.278C13.9158 33.4619 13.7515 33.6107 13.556 33.708C13.3604 33.8054 13.1414 33.8473 12.9231 33.8291C12.7048 33.811 12.496 33.7335 12.3198 33.6053L12.9595 32.3438C13.0006 32.2629 13.022 32.1737 13.0221 32.0833V20.4166C13.0221 20.3261 13.0007 20.2367 12.9595 20.1557L12.7959 19.8333H22.4021L21.9067 23.2508C21.9009 23.2902 21.8993 23.33 21.9019 23.3697L22.4926 32.683C22.4879 32.9895 22.3611 33.2818 22.1397 33.497C21.9182 33.7122 21.6198 33.8329 21.3088 33.8333ZM14.7978 1.75C14.798 1.59534 14.8604 1.44707 14.9714 1.33771C15.0823 1.22835 15.2328 1.16684 15.3897 1.16666H18.9412C19.0981 1.16684 19.2486 1.22835 19.3595 1.33771C19.4705 1.44707 19.5329 1.59534 19.5331 1.75V2.33333H14.7978V1.75ZM11.8382 9.48549C11.8377 9.12636 11.9498 8.77584 12.1592 8.48194L15.6979 3.49999H18.633L22.1717 8.48194C22.3811 8.77584 22.4932 9.12636 22.4926 9.48549V10.5H11.8382V9.48549ZM11.8382 11.6666H22.4926V18.6666H12.204L11.8382 17.9456V11.6666ZM11.8382 31.4999H9.0453C9.92251 29.9177 10.6544 28.2603 10.6544 25.6666C10.6544 24.0272 10.1783 22.4705 9.61923 21H11.8382V31.4999ZM1.54962 19.8333L2.14154 18.6666H7.69485C7.85184 18.6666 8.00239 18.6052 8.1134 18.4958C8.2244 18.3864 8.28676 18.238 8.28676 18.0833C8.28676 17.9286 8.2244 17.7802 8.1134 17.6708C8.00239 17.5614 7.85184 17.5 7.69485 17.5H2.36765V16.3333H10.6544V17.5H10.0625C9.90551 17.5 9.75496 17.5614 9.64395 17.6708C9.53295 17.7802 9.47059 17.9286 9.47059 18.0833C9.47059 18.238 9.53295 18.3864 9.64395 18.4958C9.75496 18.6052 9.90551 18.6666 10.0625 18.6666H10.8805L11.4724 19.8333H1.54962Z" fill="white"/>
</svg>
