<?xml version="1.0"?>
<svg xmlns="http://www.w3.org/2000/svg" xmlns:xlink="http://www.w3.org/1999/xlink" xmlns:svgjs="http://svgjs.com/svgjs" version="1.1" width="512" height="512" x="0" y="0" viewBox="0 0 512 512" style="enable-background:new 0 0 512 512" xml:space="preserve" class=""><g><g xmlns="http://www.w3.org/2000/svg"><path d="M448,8H144a8,8,0,0,0-8,8V88H56a8,8,0,0,0-8,8V496a8,8,0,0,0,8,8H360a8,8,0,0,0,8-8V424h80a8,8,0,0,0,8-8V16A8,8,0,0,0,448,8ZM152,27.49,315.37,88H152ZM352,488H64V104H352Zm88-80H368V96a8.01,8.01,0,0,0-5.22-7.5L188.63,24H440Z" fill="#ffffff" data-original="#000000" style="" class=""/><path d="M304,424H112a8,8,0,0,0,0,16H304a8,8,0,0,0,0-16Z" fill="#ffffff" data-original="#000000" style="" class=""/><path d="M248,448H136a8,8,0,0,0,0,16H248a8,8,0,0,0,0-16Z" fill="#ffffff" data-original="#000000" style="" class=""/><path d="M280,448h-8a8,8,0,0,0,0,16h8a8,8,0,0,0,0-16Z" fill="#ffffff" data-original="#000000" style="" class=""/><path d="M262.3,224.85A23.982,23.982,0,0,0,240,192V152a8,8,0,0,0-8-8h-.8a8.006,8.006,0,0,0-7.84,6.41A32.079,32.079,0,0,1,192,176c-.96,0-1.93-.04-2.88-.13A12.011,12.011,0,0,0,176,187.81V192a23.982,23.982,0,0,0-22.3,32.85,23.991,23.991,0,0,0-.9,46.04l7.26,58.1A8,8,0,0,0,168,336h80a8,8,0,0,0,7.94-7.01l7.26-58.1a23.991,23.991,0,0,0-.9-46.04ZM224,179.73V192H192A48,48,0,0,0,224,179.73ZM176,208h64a8,8,0,0,1,0,16H176a8,8,0,0,1,0-16Zm64.94,112H175.06l-6-48h77.88ZM256,256H160a8,8,0,0,1,0-16h96a8,8,0,0,1,0,16Z" fill="#ffffff" data-original="#000000" style="" class=""/><path d="M88,408H328a8,8,0,0,0,8-8V368a8,8,0,0,0-8-8H88a8,8,0,0,0-8,8v32A8,8,0,0,0,88,408Zm8-32H320v16H96Z" fill="#ffffff" data-original="#000000" style="" class=""/></g></g></svg>
