<svg width="192" height="192" viewBox="0 0 192 192" fill="none" xmlns="http://www.w3.org/2000/svg">
<path d="M52.3636 91.6364C52.3636 89.2244 50.4118 87.2727 47.9998 87.2727C45.5878 87.2727 43.636 89.2244 43.636 91.6364C43.636 103.095 56.2753 118.828 57.7157 120.588C58.5809 121.637 59.8335 122.182 61.0948 122.182C62.0664 122.182 63.0465 121.858 63.8602 121.193C65.7224 119.663 65.9908 116.915 64.4653 115.048C59.7869 109.347 52.3636 97.9516 52.3636 91.6364Z" fill="#6BAFC3"/>
<path d="M144 87.2727C141.588 87.2727 139.636 89.2244 139.636 91.6364C139.636 97.9303 132.213 109.338 127.534 115.053C126.008 116.915 126.281 119.664 128.143 121.193C128.953 121.858 129.933 122.182 130.909 122.182C132.17 122.182 133.419 121.637 134.284 120.588C135.724 118.828 148.364 103.095 148.364 91.6364C148.364 89.2244 146.412 87.2727 144 87.2727Z" fill="#6BAFC3"/>
<path d="M96 87.2727C93.588 87.2727 91.6362 89.2244 91.6362 91.6364V117.818C91.6362 120.23 93.588 122.182 96 122.182C98.412 122.182 100.364 120.23 100.364 117.818V91.6364C100.363 89.2244 98.4116 87.2727 96 87.2727Z" fill="#6BAFC3"/>
<path d="M144 17.4547C141.355 17.4547 138.592 17.8045 135.722 18.3375C126.111 7.13414 111.885 0 96 0C80.1154 0 65.8881 7.13414 56.2777 18.3371C53.4076 17.8045 50.6442 17.4543 48.0002 17.4543C21.5325 17.4547 0 38.9872 0 65.4546C0 83.5908 10.2273 100.078 26.2841 108.23L26.199 174.175C26.1949 178.934 28.044 183.409 31.4063 186.775C34.7727 190.146 39.2428 192 44.003 192H148.014C157.832 192 165.818 184.014 165.818 174.196V108.166C181.815 99.9929 192 83.5311 192 65.4546C192 38.9872 170.467 17.4547 144 17.4547ZM157.091 174.196C157.091 179.199 153.017 183.273 148.014 183.273H44.0026C41.5779 183.273 39.298 182.327 37.5807 180.61C35.8674 178.893 34.9216 176.613 34.9257 174.184L34.9486 157.091H157.091V174.196ZM159.792 101.374C159.562 101.467 159.345 101.578 159.14 101.71C158.59 102.051 158.139 102.503 157.802 103.023C157.461 103.538 157.231 104.135 157.137 104.774C157.099 105.017 157.086 105.26 157.09 105.507V148.363H34.9596L35.0157 105.566C35.0198 105.328 35.0071 105.085 34.9731 104.85C34.8794 104.19 34.6365 103.576 34.2826 103.044C33.95 102.545 33.5155 102.11 32.987 101.778C32.7698 101.642 32.5395 101.522 32.301 101.424C17.9787 95.1608 8.72712 81.0553 8.72712 65.4546C8.72712 43.7981 26.3438 26.1818 47.9998 26.1818C48.8462 26.1818 49.7397 26.2841 50.6163 26.3532C46.2014 34.0262 43.636 42.8928 43.636 52.3637C43.636 54.7757 45.5878 56.7275 47.9998 56.7275C50.4118 56.7275 52.3636 54.7757 52.3636 52.3637C52.3636 28.3038 71.9402 8.72714 96 8.72714C120.06 8.72714 139.636 28.3038 139.636 52.3637C139.636 54.7757 141.588 56.7275 144 56.7275C146.412 56.7275 148.364 54.7757 148.364 52.3637C148.364 42.8928 145.798 34.0266 141.383 26.3532C142.26 26.2841 143.153 26.1818 144 26.1818C165.656 26.1818 183.272 43.7985 183.272 65.4546C183.272 81.0001 174.059 95.0879 159.792 101.374Z" fill="#6BAFC3"/>
</svg>
