<svg width="192" height="192" viewBox="0 0 192 192" fill="none" xmlns="http://www.w3.org/2000/svg">
<path d="M135.962 64.7104L133.907 57.9488C131.298 50.268 122.956 46.1572 115.275 48.7668C110.954 50.2348 107.561 53.628 106.093 57.9488L104.038 64.7104C102.31 70.4128 101.947 76.442 102.979 82.3104C103.921 87.2512 107.058 91.496 111.504 93.8464L109.203 145.28C108.895 148.151 109.826 151.017 111.763 153.158C115.928 157.714 122.999 158.031 127.555 153.866C127.801 153.641 128.037 153.405 128.262 153.158C130.156 151.078 131.086 148.296 130.822 145.494L128.509 93.84C132.949 91.4884 136.081 87.2464 137.021 82.3104C138.053 76.442 137.69 70.4128 135.962 64.7104ZM130.717 81.1968C130.024 84.7464 127.494 87.6588 124.077 88.8416C122.78 89.3292 121.944 90.5964 122.006 91.9808L124.438 146C124.55 147.06 124.201 148.116 123.478 148.899C121.552 150.807 118.448 150.807 116.522 148.899C115.763 148.053 115.419 146.914 115.581 145.789L117.994 91.9808C118.056 90.5964 117.22 89.3292 115.923 88.8416C112.506 87.6588 109.976 84.7464 109.283 81.1968C108.427 76.3248 108.729 71.3196 110.163 66.5856L112.218 59.8208C113.807 55.5228 118.58 53.3272 122.878 54.9168C125.151 55.7572 126.942 57.5488 127.782 59.8208L129.837 66.5856C131.27 71.32 131.571 76.3248 130.717 81.1968Z" fill="#6BAFC3"/>
<path d="M86.4 48C84.6328 48 83.2 49.4328 83.2 51.2V78.6752L74.5376 87.3376C73.8968 87.976 73.556 88.8564 73.6 89.76L76.4 145.76C76.4668 146.968 76.0284 148.149 75.1904 149.021C73.4388 150.788 70.586 150.801 68.8184 149.049C68.8088 149.04 68.7996 149.03 68.7904 149.021C67.952 148.149 67.514 146.968 67.5808 145.76L70.4 89.76C70.4448 88.8568 70.1052 87.9768 69.4656 87.3376L60.8 78.6752V51.2C60.8 49.4328 59.3672 48 57.6 48C55.8328 48 54.4 49.4328 54.4 51.2V80C54.4 80.8488 54.7376 81.6624 55.3376 82.2624L63.9328 90.8608L61.2032 145.45C60.9128 151.412 65.5112 156.482 71.474 156.772C77.4368 157.063 82.5064 152.464 82.7968 146.502C82.814 146.151 82.814 145.8 82.7968 145.45L80.0672 90.8612L88.6624 82.2628C89.2624 81.6628 89.6 80.8492 89.6 80.0004V51.2004C89.6 49.4328 88.1672 48 86.4 48Z" fill="#6BAFC3"/>
<path d="M67.2 48C65.4328 48 64 49.4328 64 51.2V76.8C64 78.5672 65.4328 80 67.2 80C68.9672 80 70.4 78.5672 70.4 76.8V51.2C70.4 49.4328 68.9672 48 67.2 48Z" fill="#6BAFC3"/>
<path d="M76.8 48C75.0328 48 73.6 49.4328 73.6 51.2V76.8C73.6 78.5672 75.0328 80 76.8 80C78.5672 80 80 78.5672 80 76.8V51.2C80 49.4328 78.5672 48 76.8 48Z" fill="#6BAFC3"/>
<path d="M96 0C42.9808 0 0 42.9808 0 96C0 149.019 42.9808 192 96 192C149.019 192 192 149.019 192 96C191.94 43.0056 148.994 0.06 96 0ZM96 185.6C46.5152 185.6 6.4 145.485 6.4 96C6.4 46.5152 46.5152 6.4 96 6.4C145.485 6.4 185.6 46.5152 185.6 96C185.544 145.461 145.461 185.544 96 185.6Z" fill="#6BAFC3"/>
<path d="M106.388 156.069C106.216 154.31 104.651 153.023 102.892 153.195C102.85 153.199 102.809 153.204 102.768 153.209L102.781 153.206C98.2756 153.729 93.7244 153.729 89.2192 153.206C87.4632 153 85.8732 154.256 85.6672 156.012C85.4612 157.768 86.7176 159.358 88.4736 159.564C93.47 160.148 98.5172 160.148 103.514 159.564C105.272 159.393 106.559 157.828 106.388 156.069Z" fill="#6BAFC3"/>
<path d="M144.96 54.7648C143.824 53.4108 141.806 53.2336 140.452 54.3696C140.448 54.3732 140.443 54.3772 140.438 54.3808C139.088 55.52 138.916 57.5384 140.054 58.8896C159.348 81.7936 157.872 115.661 136.659 136.8C135.407 138.048 135.404 140.074 136.651 141.326C137.899 142.578 139.926 142.582 141.178 141.334C164.752 117.849 166.396 80.2164 144.96 54.7648Z" fill="#6BAFC3"/>
<path d="M74.5568 42.2976C74.5548 42.2976 74.5528 42.2972 74.5508 42.2972C74.5476 42.2972 74.5444 42.2976 74.5408 42.2976H74.5568Z" fill="#6BAFC3"/>
<path d="M111.094 33.7888C98.5884 30.7916 85.4724 31.5972 73.4272 36.1024C71.7728 36.7244 70.9364 38.57 71.5584 40.224C72.0272 41.4708 73.2192 42.296 74.5508 42.2972C74.9336 42.2952 75.3128 42.2252 75.6704 42.0896C86.5176 38.0332 98.3288 37.3088 109.59 40.0096C111.308 40.4248 113.038 39.3692 113.453 37.6512C113.868 35.9332 112.812 34.204 111.094 33.7888Z" fill="#6BAFC3"/>
<path d="M55.1968 136.64C44.4092 125.871 38.3632 111.243 38.4 96C38.3684 83.8216 42.226 71.9512 49.4112 62.1184C50.4732 60.7056 50.1888 58.6996 48.776 57.6376C47.3632 56.5756 45.3572 56.86 44.2952 58.2728C44.2764 58.298 44.258 58.3232 44.24 58.3488C25.7388 83.784 28.4612 118.892 50.6624 141.171C51.9136 142.423 53.9432 142.424 55.1952 141.173C56.4472 139.922 56.448 137.892 55.1968 136.64Z" fill="#6BAFC3"/>
</svg>
