<svg width="35" height="35" viewBox="0 0 35 35" fill="none" xmlns="http://www.w3.org/2000/svg">
<path d="M24.7847 11.7962L24.4102 10.5636C23.9345 9.16344 22.4138 8.41407 21.0136 8.88978C20.226 9.15738 19.6074 9.77594 19.3398 10.5636L18.9653 11.7962C18.6502 12.8357 18.5841 13.9347 18.7722 15.0045C18.9439 15.9052 19.5157 16.679 20.3263 17.1074L19.9068 26.4833C19.8507 27.0067 20.0204 27.5291 20.3735 27.9195C21.1328 28.75 22.4217 28.8078 23.2522 28.0485C23.2971 28.0074 23.3401 27.9644 23.3812 27.9195C23.7264 27.5402 23.8958 27.0331 23.8478 26.5224L23.4261 17.1063C24.2355 16.6776 24.8064 15.9043 24.9777 15.0045C25.1659 13.9347 25.0998 12.8357 24.7847 11.7962ZM23.8286 14.8015C23.7023 15.4486 23.2412 15.9795 22.6182 16.1951C22.3817 16.284 22.2294 16.515 22.2407 16.7673L22.6841 26.6146C22.7045 26.8077 22.6408 27.0003 22.5091 27.1431C22.1578 27.4908 21.5922 27.4908 21.2409 27.1431C21.1027 26.9888 21.0399 26.7811 21.0694 26.5761L21.5093 16.7673C21.5206 16.515 21.3683 16.284 21.1318 16.1951C20.5088 15.9795 20.0477 15.4486 19.9214 14.8015C19.7654 13.9134 19.8204 13.001 20.0818 12.138L20.4563 10.9048C20.7461 10.1213 21.6161 9.7211 22.3997 10.0109C22.8139 10.1641 23.1405 10.4907 23.2937 10.9048L23.6682 12.138C23.9294 13.001 23.9843 13.9134 23.8286 14.8015Z" fill="white"/>
<path d="M15.75 8.75C15.4279 8.75 15.1667 9.01119 15.1667 9.33333V14.3418L13.5876 15.9209C13.4708 16.0373 13.4086 16.1978 13.4167 16.3625L13.9271 26.5708C13.9393 26.791 13.8593 27.0063 13.7066 27.1652C13.3873 27.4874 12.8672 27.4897 12.545 27.1704C12.5433 27.1687 12.5416 27.1669 12.5399 27.1652C12.3871 27.0063 12.3072 26.791 12.3194 26.5708L12.8333 16.3625C12.8415 16.1979 12.7796 16.0374 12.663 15.9209L11.0833 14.3418V9.33333C11.0833 9.01119 10.8221 8.75 10.5 8.75C10.1779 8.75 9.91667 9.01119 9.91667 9.33333V14.5833C9.91667 14.7381 9.97821 14.8864 10.0876 14.9957L11.6544 16.5632L11.1568 26.5142C11.1039 27.6012 11.9421 28.5254 13.0291 28.5783C14.1161 28.6312 15.0402 27.793 15.0932 26.706C15.0963 26.6421 15.0963 26.5782 15.0932 26.5143L14.5956 16.5632L16.1624 14.9958C16.2718 14.8864 16.3333 14.7381 16.3333 14.5834V9.33341C16.3333 9.01119 16.0721 8.75 15.75 8.75Z" fill="white"/>
<path d="M12.25 8.75C11.9279 8.75 11.6667 9.01119 11.6667 9.33333V14C11.6667 14.3221 11.9279 14.5833 12.25 14.5833C12.5721 14.5833 12.8333 14.3221 12.8333 14V9.33333C12.8333 9.01119 12.5721 8.75 12.25 8.75Z" fill="white"/>
<path d="M14 8.75C13.6779 8.75 13.4167 9.01119 13.4167 9.33333V14C13.4167 14.3221 13.6779 14.5833 14 14.5833C14.3221 14.5833 14.5833 14.3221 14.5833 14V9.33333C14.5833 9.01119 14.3221 8.75 14 8.75Z" fill="white"/>
<path d="M17.5 0C7.83504 0 0 7.83504 0 17.5C0 27.165 7.83504 35 17.5 35C27.165 35 35 27.165 35 17.5C34.9891 7.83956 27.1604 0.0109375 17.5 0ZM17.5 33.8333C8.47933 33.8333 1.16667 26.5207 1.16667 17.5C1.16667 8.47933 8.47933 1.16667 17.5 1.16667C26.5207 1.16667 33.8333 8.47933 33.8333 17.5C33.8231 26.5164 26.5164 33.8231 17.5 33.8333Z" fill="white"/>
<path d="M19.3936 28.45C19.3623 28.1294 19.077 27.8949 18.7563 27.9261C18.7488 27.9269 18.7413 27.9277 18.7337 27.9288L18.7361 27.9282C17.9148 28.0236 17.0852 28.0236 16.2639 27.9282C15.9438 27.8906 15.654 28.1197 15.6164 28.4398C15.5789 28.7599 15.8079 29.0497 16.128 29.0873C17.0388 29.1936 17.9589 29.1936 18.8697 29.0873C19.1903 29.0561 19.4249 28.7707 19.3936 28.45Z" fill="white"/>
<path d="M26.425 9.98317C26.218 9.73634 25.8501 9.70404 25.6032 9.91112C25.6024 9.91178 25.6016 9.91251 25.6007 9.91317C25.3545 10.1208 25.3232 10.4888 25.5307 10.7351C29.0479 14.9103 28.7788 21.0841 24.9118 24.9375C24.6836 25.1649 24.6829 25.5344 24.9104 25.7626C25.1378 25.9909 25.5073 25.9915 25.7355 25.7641C30.033 21.4829 30.3327 14.6228 26.425 9.98317Z" fill="white"/>
<path d="M13.5911 7.7105C13.5907 7.7105 13.5904 7.71043 13.59 7.71043C13.5894 7.71043 13.5888 7.7105 13.5882 7.7105H13.5911Z" fill="white"/>
<path d="M20.2516 6.15942C17.9718 5.61305 15.5809 5.75991 13.3852 6.58117C13.0836 6.69455 12.9311 7.03099 13.0445 7.3325C13.13 7.55978 13.3472 7.71021 13.59 7.71043C13.6598 7.71006 13.7289 7.6973 13.7941 7.67258C15.7714 6.93314 17.9245 6.80108 19.9774 7.29342C20.2906 7.3691 20.6058 7.17668 20.6815 6.8635C20.7572 6.55032 20.5648 6.2351 20.2516 6.15942Z" fill="white"/>
<path d="M10.0619 24.9083C8.09543 22.9452 6.99329 20.2787 7 17.5C6.99424 15.28 7.69745 13.1161 9.00725 11.3237C9.20084 11.0661 9.149 10.7004 8.89146 10.5069C8.63392 10.3133 8.26824 10.3651 8.07465 10.6226C8.07122 10.6272 8.06786 10.6318 8.06458 10.6365C4.69197 15.2731 5.18824 21.6731 9.23533 25.7343C9.46342 25.9626 9.8334 25.9627 10.0616 25.7346C10.2899 25.5065 10.29 25.1366 10.0619 24.9083Z" fill="white"/>
</svg>
