<svg width="20" height="20" viewBox="0 0 20 20" fill="none" xmlns="http://www.w3.org/2000/svg">
<path d="M19.1028 0.674039L19.0787 0.652083C18.6184 0.231597 18.0217 0 17.3985 0C16.6999 0 16.0291 0.295745 15.5581 0.811334L6.65244 10.5612C6.57127 10.6501 6.5097 10.7549 6.47164 10.8691L5.42446 14.0083C5.30339 14.3713 5.36416 14.7727 5.58698 15.082C5.81159 15.3937 6.17343 15.5799 6.55499 15.5799C6.72003 15.5799 6.8814 15.5459 7.03441 15.479L10.0664 14.1526C10.1766 14.1044 10.2755 14.0336 10.3566 13.9447L19.2623 4.19489C20.1891 3.18039 20.1176 1.60106 19.1028 0.674039ZM7.43082 13.4284L8.04529 11.5863L8.09712 11.5296L9.26175 12.5933L9.20993 12.6501L7.43082 13.4284ZM17.9926 3.03501L10.4216 11.3236L9.25699 10.2599L16.8279 1.97121C16.976 1.80909 17.1787 1.71978 17.3986 1.71978C17.5915 1.71978 17.7762 1.79155 17.9192 1.92214L17.9432 1.9441C18.2576 2.23124 18.2797 2.72063 17.9926 3.03501Z" fill="#535353"/>
<path d="M17.3751 7.93312C16.9002 7.93312 16.5152 8.31812 16.5152 8.79301V16.0933C16.5152 17.2991 15.5342 18.2801 14.3284 18.2801H3.90659C2.70074 18.2801 1.71978 17.2991 1.71978 16.0933V5.75617C1.71978 4.55037 2.7008 3.56935 3.90659 3.56935H11.4499C11.9248 3.56935 12.3098 3.18435 12.3098 2.70946C12.3098 2.23457 11.9248 1.84957 11.4499 1.84957H3.90659C1.75245 1.84957 0 3.60208 0 5.75617V16.0932C0 18.2473 1.75251 19.9998 3.90659 19.9998H14.3283C16.4824 19.9998 18.2349 18.2473 18.2349 16.0932V8.79301C18.235 8.31812 17.85 7.93312 17.3751 7.93312Z" fill="#535353"/>
</svg>
