<?xml version="1.0"?>
<svg xmlns="http://www.w3.org/2000/svg" viewBox="0 0 64 64" width="512" height="512" style="fill: #48EF62;"><g id="Outline"><g><path d="M49.685,31.716a1,1,0,0,0,.854-1.52c-.1-.158-.2-.316-.3-.471a1,1,0,0,0-1.675,1.093c.09.138.177.277.263.417A1,1,0,0,0,49.685,31.716Z"/><path d="M46.49,28.289a1,1,0,0,0,1.4-1.43A16.9,16.9,0,0,0,36,22a1,1,0,0,0,0,2A14.91,14.91,0,0,1,46.49,28.289Z"/><path d="M59,38H56.949A21.007,21.007,0,0,0,41,18.627V17a5,5,0,0,0-10,0v1.618a21.144,21.144,0,0,0-4.015,1.437,1,1,0,1,0,.86,1.8A18.944,18.944,0,0,1,54.949,38H17.029a18.841,18.841,0,0,1,7.56-14.165,1,1,0,0,0-1.2-1.6A20.827,20.827,0,0,0,15.029,38H13a3,3,0,0,0-3,3,2.966,2.966,0,0,0,.184,1H6a1,1,0,0,0,0,2H17.11a6.989,6.989,0,0,0-2.033,4.016A.657.657,0,0,0,15,48H11a1,1,0,0,0,0,2h4a.657.657,0,0,0,.077-.016A6.989,6.989,0,0,0,17.11,54H3a1,1,0,0,0,0,2H22a7.008,7.008,0,0,0,7-7H40.09a1,1,0,0,0,0-2H28.705a7,7,0,0,0-1.816-3H29a1,1,0,0,0,0-2H13a1,1,0,0,1,0-2H59a1,1,0,0,1,0,2H33a1,1,0,0,0,0,2H50a5,5,0,1,1-5,5,4.934,4.934,0,0,1,.493-2.167,1,1,0,0,0-1.8-.869A6.992,6.992,0,0,0,45.11,54H41a1,1,0,0,0,0,2h9a6.993,6.993,0,0,0,4.889-12H59a3,3,0,0,0,0-6ZM33,18.225V17a3,3,0,0,1,6,0v1.24A20.909,20.909,0,0,0,36,18,20.657,20.657,0,0,0,33,18.225ZM27,49a5,5,0,1,1-5-5A5.006,5.006,0,0,1,27,49Z"/><path d="M53,49a3,3,0,1,0-3,3A3,3,0,0,0,53,49Zm-4,0a1,1,0,1,1,1,1A1,1,0,0,1,49,49Z"/><path d="M22,52a3,3,0,1,0-3-3A3,3,0,0,0,22,52Zm0-4a1,1,0,1,1-1,1A1,1,0,0,1,22,48Z"/><path d="M37,54H32a1,1,0,0,0,0,2h5a1,1,0,0,0,0-2Z"/><path d="M8,25h9a1,1,0,0,0,0-2H8a1,1,0,0,0,0,2Z"/><path d="M3,31h9a1,1,0,0,0,0-2H3a1,1,0,0,0,0,2Z"/><path d="M12,34H7a1,1,0,0,0,0,2h5a1,1,0,0,0,0-2Z"/></g></g></svg>
