<svg width="30" height="30" viewBox="0 0 30 30" fill="none" xmlns="http://www.w3.org/2000/svg">
<path d="M29.0616 14.0625H17.1869C16.6694 14.0625 16.2494 13.6425 16.2494 13.125C16.2494 12.6075 16.6694 12.1875 17.1869 12.1875H29.0616C29.5791 12.1875 29.9991 12.6075 29.9991 13.125C29.9991 13.6425 29.5791 14.0625 29.0616 14.0625Z" fill="white"/>
<path d="M24.3743 18.75C24.1342 18.75 23.8943 18.6587 23.7117 18.4751C23.3455 18.1087 23.3455 17.515 23.7117 17.1487L27.7367 13.1239L23.7117 9.09874C23.3455 8.73253 23.3455 8.13881 23.7117 7.7726C24.0781 7.40616 24.6718 7.40616 25.038 7.7726L29.7253 12.4601C30.0916 12.8263 30.0916 13.42 29.7253 13.7862L25.038 18.4737C24.8542 18.6587 24.6143 18.75 24.3743 18.75Z" fill="white"/>
<path d="M9.99977 30C9.73222 30 9.47839 29.9625 9.2248 29.8837L1.70237 27.3775C0.678843 27.02 0 26.0662 0 25.0001V2.50008C0 1.12129 1.12126 0 2.5 0C2.76733 0 3.02115 0.0375366 3.27497 0.116272L10.7972 2.62253C11.8209 2.98004 12.4995 3.93379 12.4995 4.99992V27.4999C12.4995 28.8787 11.3785 30 9.99977 30ZM2.5 1.875C2.15623 1.875 1.87494 2.1563 1.87494 2.50008V25.0001C1.87494 25.2663 2.05369 25.5137 2.30866 25.6025L9.79584 28.0975C9.84963 28.1149 9.91967 28.125 9.99977 28.125C10.3435 28.125 10.6246 27.8437 10.6246 27.4999V4.99992C10.6246 4.73373 10.4458 4.48631 10.1909 4.39751L2.7037 1.90247C2.64991 1.88507 2.57988 1.875 2.5 1.875Z" fill="white"/>
<path d="M19.0618 10.0001C18.5444 10.0001 18.1244 9.58008 18.1244 9.06258V3.43758C18.1244 2.57629 17.4233 1.875 16.5621 1.875L2.5 1.875C1.98251 1.875 1.56253 1.455 1.56253 0.9375C1.56253 0.419998 1.98251 0 2.5 0H16.5621C18.4583 0 19.9993 1.54129 19.9993 3.43758V9.06258C19.9993 9.58008 19.5793 10.0001 19.0618 10.0001Z" fill="white"/>
<path d="M16.5621 26.25H11.5621C11.0446 26.25 10.6246 25.83 10.6246 25.3125C10.6246 24.795 11.0446 24.375 11.5621 24.375H16.5621C17.4233 24.375 18.1244 23.6737 18.1244 22.8124V17.1874C18.1244 16.6699 18.5444 16.2499 19.0618 16.2499C19.5793 16.2499 19.9993 16.6699 19.9993 17.1874V22.8124C19.9993 24.7087 18.4583 26.25 16.5621 26.25Z" fill="white"/>
</svg>
