<svg width="18" height="20" viewBox="0 0 18 20" fill="none" xmlns="http://www.w3.org/2000/svg">
<path d="M11.7587 7.24595C11.4999 7.24595 11.2903 7.45563 11.2903 7.71434V16.5668C11.2903 16.8253 11.4999 17.0352 11.7587 17.0352C12.0174 17.0352 12.227 16.8253 12.227 16.5668V7.71434C12.227 7.45563 12.0174 7.24595 11.7587 7.24595Z" fill="#535353"/>
<path d="M6.23174 7.24595C5.97303 7.24595 5.76336 7.45563 5.76336 7.71434V16.5668C5.76336 16.8253 5.97303 17.0352 6.23174 17.0352C6.49045 17.0352 6.70013 16.8253 6.70013 16.5668V7.71434C6.70013 7.45563 6.49045 7.24595 6.23174 7.24595Z" fill="#535353"/>
<path d="M2.2037 5.95395V17.4939C2.2037 18.176 2.45381 18.8165 2.89072 19.2761C3.32562 19.737 3.93086 19.9987 4.56427 19.9998H13.4262C14.0598 19.9987 14.6651 19.737 15.0998 19.2761C15.5367 18.8165 15.7868 18.176 15.7868 17.4939V5.95395C16.6553 5.72342 17.2181 4.88435 17.1019 3.99315C16.9856 3.10212 16.2264 2.43559 15.3277 2.43541H12.9297V1.84993C12.9324 1.35758 12.7377 0.884804 12.3892 0.536994C12.0406 0.189366 11.5671 -0.00420776 11.0748 -0.000182599H6.9157C6.42335 -0.00420776 5.94984 0.189366 5.6013 0.536994C5.25276 0.884804 5.05809 1.35758 5.06083 1.84993V2.43541H2.66275C1.76404 2.43559 1.00493 3.10212 0.888566 3.99315C0.772385 4.88435 1.33518 5.72342 2.2037 5.95395ZM13.4262 19.063H4.56427C3.76345 19.063 3.14046 18.3751 3.14046 17.4939V5.99512H14.85V17.4939C14.85 18.3751 14.227 19.063 13.4262 19.063ZM5.9976 1.84993C5.99448 1.60604 6.09036 1.3713 6.26344 1.19913C6.43634 1.02697 6.67163 0.932375 6.9157 0.936583H11.0748C11.3189 0.932375 11.5541 1.02697 11.727 1.19913C11.9001 1.37112 11.996 1.60604 11.9929 1.84993V2.43541H5.9976V1.84993ZM2.66275 3.37217H15.3277C15.7934 3.37217 16.1708 3.74962 16.1708 4.21526C16.1708 4.6809 15.7934 5.05835 15.3277 5.05835H2.66275C2.19711 5.05835 1.81966 4.6809 1.81966 4.21526C1.81966 3.74962 2.19711 3.37217 2.66275 3.37217Z" fill="#535353"/>
<path d="M8.99525 7.24595C8.73654 7.24595 8.52687 7.45563 8.52687 7.71434V16.5668C8.52687 16.8253 8.73654 17.0352 8.99525 17.0352C9.25395 17.0352 9.46363 16.8253 9.46363 16.5668V7.71434C9.46363 7.45563 9.25395 7.24595 8.99525 7.24595Z" fill="#535353"/>
</svg>
